<?xml version="1.0" standalone="no"?>
<!DOCTYPE svg PUBLIC "-//W3C//DTD SVG 20010904//EN"
 "http://www.w3.org/TR/2001/REC-SVG-20010904/DTD/svg10.dtd">
<svg version="1.0" xmlns="http://www.w3.org/2000/svg"
 width="96.000000pt" height="96.000000pt" viewBox="0 0 96.000000 96.000000"
 preserveAspectRatio="xMidYMid meet">
<metadata>
Created by potrace 1.11, written by Peter Selinger 2001-2013
</metadata>
<g transform="translate(0.000000,96.000000) scale(0.100000,-0.100000)"
fill="#000000" stroke="none">
<path d="M76 725 c-32 -30 -33 -65 -3 -92 29 -27 62 -34 98 -21 51 18 64 67
28 112 -28 35 -85 36 -123 1z m114 -48 c0 -14 -20 -37 -32 -37 -4 0 -8 20 -8
45 l0 45 20 -20 c11 -11 20 -26 20 -33z m-72 -2 c-1 -19 -7 -34 -13 -32 -22 8
-18 67 5 67 6 0 10 -16 8 -35z"/>
<path d="M577 736 c-63 -23 -112 -61 -147 -117 -31 -47 -34 -59 -35 -128 0
-85 15 -127 68 -181 58 -60 98 -71 273 -74 147 -3 156 -2 163 17 4 11 6 29 5
41 -1 11 -3 26 -3 31 -1 6 -55 10 -143 9 -158 -1 -184 6 -230 59 -41 47 -47
106 -16 165 39 76 67 86 243 90 83 2 152 6 153 7 6 6 9 69 4 83 -6 18 -283 16
-335 -2z"/>
<path d="M60 566 c0 -17 11 -25 65 -48 l40 -16 -37 -16 c-21 -9 -42 -16 -47
-16 -6 0 -15 -9 -21 -20 -15 -27 1 -26 80 6 59 24 80 25 123 8 12 -4 14 0 10
14 -3 14 -27 28 -81 47 -43 16 -89 34 -104 42 -24 12 -28 12 -28 -1z"/>
<path d="M100 393 c-52 -19 -64 -66 -27 -107 48 -54 147 -27 147 39 0 14 -11
37 -25 51 -31 31 -56 22 -26 -10 25 -26 27 -49 6 -66 -21 -17 -23 -13 -26 48
-3 53 -9 59 -49 45z m20 -68 c0 -35 -18 -40 -32 -10 -10 21 -9 28 2 35 19 12
30 3 30 -25z"/>
</g>
</svg>
